<?xml version="1.0" encoding="utf-8"?>
<!-- Generator: Adobe Illustrator 24.0.1, SVG Export Plug-In . SVG Version: 6.00 Build 0)  -->
<svg version="1.1" id="Layer_1" xmlns="http://www.w3.org/2000/svg" xmlns:xlink="http://www.w3.org/1999/xlink" x="0px" y="0px"
	 viewBox="0 0 595.3 595.3" style="enable-background:new 0 0 595.3 595.3;" xml:space="preserve">
<g>
	<g>
		<path d="M170.7,569L170.7,569c35.1,35.1,91.9,35.1,127,0c35.1,35.1,91.9,35.1,127,0l0,0c35.1-35.1,33-90,0-127
			c-38.4-43.1-67.6-80.6-127-118.4c-59.4,37.5-88.7,75.2-127,118.4C137.6,479,135.6,533.8,170.7,569z"/>
		<path d="M424.6,26.3L424.6,26.3c-35.1-35.1-91.9-35.1-127,0c-35.1-35.1-91.9-35.1-127,0l0,0c-35.1,35.1-33,90,0,127
			c38.4,43.1,67.6,80.6,127,118.4c59.4-37.5,88.7-75.2,127-118.4C457.5,116.3,459.7,61.2,424.6,26.3z"/>
	</g>
	<g>
		<path d="M569,424.6L569,424.6c35.1-35.1,35.1-91.9,0-127c35.1-35.1,35.1-91.9,0-127l0,0c-35.1-35.1-90-33-127,0
			c-43.1,38.4-80.6,67.6-118.4,127c37.5,59.4,75.2,88.7,118.4,127C479,457.5,533.8,459.7,569,424.6z"/>
		<path d="M26.3,170.7L26.3,170.7c-35.1,35.1-35.1,91.9,0,127c-35.1,35.1-35.1,91.9,0,127l0,0c35.1,35.1,90,33,127,0
			c43.1-38.4,80.6-67.6,118.4-127c-37.5-59.4-75.2-88.7-118.4-127C116.3,137.6,61.2,135.6,26.3,170.7z"/>
	</g>
</g>
</svg>
